<?xml version="1.0" encoding="UTF-8"?>
<svg version="1.1" viewBox="0 0 2048 1773" width="1280" height="1280" xmlns="http://www.w3.org/2000/svg">
<path transform="translate(0)" d="m0 0h2048v1773h-2048z" fill="#FDFDFD"/>
<path transform="translate(287,162)" d="m0 0h28l39 3 35 5 34 14 29 14 22 11 24 14 20 12 30 20 14 10 19 14 14 11 16 13 13 11 14 12 13 12 10 9 17 16 32 32 7 8 8 8 7 8 12 13 9 11 10 11 9 11 11 13 11 14 12 15 30 40 13 18 11 16 17 25 19 29 12 19 17 28 13 22 16 28 14 26 14 27 5 10v2h2l1-5 7-17v-7l-9-12-4-12-1-6v-22l3-12 5-9 9-8h2l-17-50-18-52-19-52-18-45-11-25-11-21-5-6h-14l-11-3-10-9-5-10-1-4v-9l3-7 5-3 8 1 9 6 13 13 10 15 14 27 9 19 15 36 15 40 15 42 14 42 15 49v2l10-3h14l8 2 1-7 12-39 12-36 14-41 13-35 14-35 13-30 13-26 10-16 8-10 11-11 10-5 8 1 4 5 1 3v10l-4 11-9 10-8 4-13 1h-6l-5 5-9 16-12 26-12 30-14 37-14 39-15 43-12 35-5 15v3l10 8 7 11 3 9 1 5v26l-3 10-6 9-8 7 1 7 9 21 10-19 14-27 13-23 15-27 15-25 14-23 16-25 28-42 14-20 10-14 14-19 9-12 10-13 14-18 18-22 11-13 24-28 15-16 9-10 9-9 7-8 28-28 8-7 9-9 8-7 11-10 11-9 10-9 14-11 16-13 19-14 18-13 21-14 19-12 24-14 22-12 30-15 33-14 11-4 34-5 39-3h29l21 2 14 3 9 4 8 6 7 8 7 14 4 14 2 11 1 11v29l-3 30-6 33-9 34-11 33-16 64-11 50-10 52-6 39-1 9v23l8 30 6 33 3 29v42l-3 26-5 24-10 30-10 21-11 18-13 17-11 12-9 8-17 9-21 7-27 6-37 5-38 3-22 1h-105l-54-2 64 9 53 9 43 9 29 8 16 6 38 19 18 11 11 9 7 6 11 14 8 16 5 17 3 19 1 51 2 19 5 19 5 17 4 17 10 24 1 5v10l-4 10-6 8-12 14-11 12-9 14-4 10-1 11 4 31v32l-3 14-3 6-5 5-11 2-10 6-10 11-10 15-8 16-6 14-5 12-9 14-9 10-9 9-15 11-15 9-16 6-15 3-42 4-12 4-11 9-11 10-14 8-11 4-10 2-10 1h-21l-20-2-12-3-9-5-10-9-11-12-13-13-11-9-10-9-9-10-12-17-12-21-10-22-10-27-12-38-16-56-12-36-8-19-8-16-14-20-12-17-20-30-15-24-12-21-12-23-11-23-10-27-1-4-2 5-7 36-1 8v11l3 13 11 25 6 21 2 13v38l-4 26-10 42-11 33-10 19-9 10-6 5-5 1-7-4-8-8-9-16-10-25-8-28-4-22-1-8v-34l3-23 7-33 10-35 7-25 1-6v-23l-3-12-6-11-4-6-2-1-1 8-10 30-13 29-12 23-14 24-15 24-21 31-12 17-11 16-11 21-11 29-11 36-17 59-11 33-11 27-10 20-12 19-9 11-9 10-12 11-11 9-16 16-7 8-8 7-11 5-17 3-12 1h-21l-19-3-12-4-11-6-13-11-10-9-10-4-12-2-34-3-21-5-17-8-12-8-14-11-12-12-9-13-7-14-6-16-10-19-10-14-9-10-10-6-12-3-5-6-3-8-2-12v-28l3-24 1-7v-8l-3-12-7-12-13-15-11-12-9-12-4-11v-9l5-15 6-14 4-16 6-21 4-16 2-17 1-51 3-21 5-16 8-16 8-11 13-13 13-9 17-10 34-17 19-7 26-7 43-9 60-10 57-8-54 2h-104l-38-2-40-4-30-5-24-6-18-7-13-7-12-11-9-10-11-15-11-18-8-16-8-20-6-21-5-26-2-21v-37l3-31 5-28 7-29 3-12-1-20-5-35-10-54-12-56-16-64-15-47-6-24-6-33-3-32v-24l2-19 5-19 7-14 10-11 14-7 14-3z" fill="#17140C"/>
<path transform="translate(1508,685)" d="m0 0h15l27 1 29 3 25 5 19 7 11 8 9 8 7 10 3 8v13l-7 33-1 8v20l4 24 7 28 1 13-2 8-4 6-9 8-15 8-24 9-27 7-23 4-20 2-65 1-43 3-45 5-53 8-41 8-40 9-37 10-38 12-32 12-25 11-21 10-12 7h-2l-3-16-3-11 41-41 8-7 35-35 8-7 24-24 8-7 17-17 8-7 14-14 8-7 11-11 8-7 8-8 8-7 7-7 8-7 16-15 8-7 12-11 11-9 12-11 11-9 14-11 14-9 11-4 26-5 35-4 15-1z" fill="#F7BD19"/>
<path transform="translate(525,685)" d="m0 0h15l29 1 35 3 28 4 20 5 10 5 13 10 10 8 13 11 14 12 12 11 8 7 36 33 32 30 7 7 8 7 13 13 8 7 18 18 8 7 22 22 8 7 32 32 8 7 41 41-3 30-15-8-27-13-32-13-34-12-37-11-48-12-45-9-43-7-46-6-45-4-17-1-66-1-26-3-25-5-25-7-24-10-14-9-7-8-2-5v-17l9-38 2-13v-23l-3-19-5-21v-12l3-9 7-9 11-11 10-6 12-5 19-5 19-3 22-2z" fill="#F7BD19"/>
<path transform="translate(1462,390)" d="m0 0 2 1 7 27 4 24v30l-3 24-7 35-11 44-4 8-12 17-15 24-13 22-20 35-11 10-11 9-14 13-8 7-10 9-8 7-14 12-14 13-8 7-10 9-8 7-12 11-8 7-12 11-8 7-12 11-20 18-13 12-10 9-26 24-30 28-8 8-8 7-21 21-8 7-3 2 1-9 6-28 2-13v-32l-5-25-7-24-3-9v-5l8-11 12-18 11-16 16-23 24-34 26-36 14-19 16-21 12-16 10-13 14-18 13-16 11-14 11-13 9-11 13-15 12-14 15-16 9-10 31-31 8-7 14-12 18-13 15-10 18-10 25-12z" fill="#F7BC19"/>
<path transform="translate(585,390)" d="m0 0 9 3 22 10 21 12 18 12 12 9 11 9 10 9 8 7 36 36 7 8 12 13 9 11 10 11 9 11 11 13 11 14 14 17 12 16 12 15 9 12 16 21 10 14 14 19 26 36 28 40 11 16 15 22 10 15-1 7-8 25-5 21-2 14v27l4 27 4 19-1 3-12-12-8-7-17-17-8-7-10-10-8-7-7-7-8-7-16-15-36-33-10-9-12-11-8-7-13-12-8-7-11-10-8-7-11-10-8-7-11-10-8-7-10-9-11-9-15-14-11-9-14-13-11-9-5-8-15-27-17-28-12-19-11-16-4-6-13-52-6-31-3-24v-27l3-21 8-32z" fill="#F7BC19"/>
<path transform="translate(815,1067)" d="m0 0h48l42 1 64 3 13 1 6 10-1 5-35 15-40 18-29 14-19 9-19 10-16 9-18 13-13 11-10 9-12 11-32 32-7 8-9 9-7 8-16 16-15 11-16 9-18 8-17 5-6 1h-18l-9-4-5-6-3-14v-21l3-32 3-26 1-15v-39l4-16 6-15 9-17 10-14 8-4 18-6 26-6 32-5 29-3 32-2z" fill="#F7BC19"/>
<path transform="translate(1143,1068)" d="m0 0h119l36 2 40 4 36 6 25 7 14 6 6 7 9 15 10 21 5 19v36l2 27 5 47v26l-3 12-6 7-8 3h-18l-17-4-20-8-17-9-14-10-13-12-10-10-7-8-9-9-7-8-39-39-8-7-14-12-18-13-15-9-41-21-36-17-36-16-28-12 3-10 3-7 4-1 39-2z" fill="#F7BC19"/>
<path transform="translate(1508,685)" d="m0 0h15l27 1 29 3 25 5 19 7 11 8 9 8 7 10 3 8v13l-7 33-1 8v20l4 24 7 28 1 13-2 8-4 6-9 8-15 8-24 9-27 7-23 4-20 2-65 1-43 3-45 5-53 8-41 8-40 9-37 10-38 12-32 12-25 11-21 10-12 7h-2l-3-16-3-11 41-41 8-7 35-35 8-7 24-24 8-7 17-17 8-7 14-14 8-7 11-11 8-7 8-8 8-7 7-7 8-7 16-15 8-7 12-11 11-9 12-11 11-9 14-11 14-9 11-4 26-5 35-4 15-1zm52 26-24 4-24 6-30 9-27 6-23 5-19 7-25 12-58 29-19 11-12 8-13 10-19 19-8 7-14 14-8 7-10 10-8 7-12 12-8 7-16 16-4 5v2l5-2 17-8 30-10 9-2v2l-5 2-22 11-33 15-23 12-12 8-13 10-10 9-8 7-10 9-12 11 3 1 21-8 50-19 45-18 31-13 16-7 21-7 48-12 19-6 11-2h20l15 1h19l20-3 40-8 14-1-4 4-15 6-10 3v1l39-1 29-2 25-5 60-21 11-6 9-7 4-5 2-5-1-11-4-17-1-13 2-9 5-9-6 2-19 8-7 2h-9l1-6 6-7 17-13 11-8 3-4-4-1-15 4-27 11-13 5 16-10 19-11 9-7 1-3h-12l-78 15-31 5-17 1 5-5 26-14 20-12 12-9 8-7 6-8 13-11 3-3v-2z" fill="#E88622"/>
<path transform="translate(525,685)" d="m0 0h15l29 1 35 3 28 4 20 5 10 5 13 10 10 8 13 11 14 12 12 11 8 7 36 33 32 30 7 7 8 7 13 13 8 7 18 18 8 7 22 22 8 7 32 32 8 7 41 41-3 30-15-8-27-13-32-13-34-12-37-11-48-12-45-9-43-7-46-6-45-4-17-1-66-1-26-3-25-5-25-7-24-10-14-9-7-8-2-5v-17l9-38 2-13v-23l-3-19-5-21v-12l3-9 7-9 11-11 10-6 12-5 19-5 19-3 22-2zm-50 26v3l10 9 8 7 7 9 13 10 15 9 25 14 13 8 1 2-17-1-36-6-73-14h-12l2 4 10 7 24 14 9 6-20-8-23-9-12-3-4 1 4 5 14 10 14 11 6 8 1 5-13-2-16-6-11-5-2 1 5 8 2 7v10l-6 28 1 8 4 6 10 8 16 8 41 14 18 6 22 4 27 2 40 1-3-2-20-7-5-3-1-2 14 1 51 10 9 1h20l14-1h20l15 3 26 8 44 11 19 7 25 11 65 26 42 16 27 10 2-1-10-10-8-7-11-10-11-9-14-11-13-8-23-12-28-13-23-11-6-4 8 1 19 6 20 8 13 6-2-5-27-27-8-7-12-12-8-7-9-9-8-7-28-28-11-9-14-10-19-11-23-12-62-31-22-8-46-10-27-8-22-6-26-5-7-1z" fill="#E88622"/>
<path transform="translate(1646,429)" d="m0 0h8l6 4 6 8 6 16 4 17 4 30 12 45 6 21 9 19 12 17 9 14 1 9-4 9-9 8-12 5-9 2h-23l-12-1h-20l-46 2-70 5-81 7-21 2h-8l3-9 11-24 9-17 11-18 10-14 9-11 11-12 13-12 11-9 14-12 14-11 13-11 14-11 15-12 28-22 36-28 7-5z" fill="#E88622"/>
<path transform="translate(394,429)" d="m0 0h8l9 5 11 9 13 10 14 11 18 14 16 13 13 10 11 9 16 13 11 9 13 11 11 9 13 12 9 9 11 14 14 21 12 21 13 27 4 10v2l-19-1-90-8-71-5-45-2h-20l-13 1h-23l-12-3-10-5-8-7-4-10 2-10 11-16 9-13 8-16 6-20 14-53 3-25 5-21 5-12 6-9z" fill="#E88622"/>
<path transform="translate(671,953)" d="m0 0 19 1 27 3 29 5 39 9 42 12 41 14 37 15 30 14 25 13 13 8 3 7 3 11-44-2-26-1-48-1h-37l-39 1-47 3-42 5-31 6-27 9-7 3-12-11-17-13-23-16-19-13-14-10v-2l18-8 23-12 21-12 29-17 28-17z" fill="#F7BC19"/>
<path transform="translate(1371,953)" d="m0 0h6l26 16 53 31 32 17 14 6-2 4-18 12-20 14-18 13-12 9-14 12-6-1-16-6-28-7-30-5-38-4-32-2-29-1h-61l-61 2-43 2 4-20 22-12 21-11 29-13 33-13 41-14 43-12 40-9 31-5z" fill="#F7BC19"/>
<path transform="translate(1454,393)" d="m0 0 2 1-30 20-16 12-11 9-12 11-18 18-11 14-10 14-14 18-18 22-11 13-9 11-13 15-9 11-12 15-5 8-1 4 11-6 14-11 13-11 11-9 13-11 14-11 6-4 2 1-8 11-9 10-7 8-12 12-8 7-26 26-9 11-12 15-14 19-14 18-15 20-13 17-13 18-9 14-3 6 6-3 11-9 15-13 10-9 11-9 12-11 11-9 12-11 11-9 10-8 4-2-2 5-16 17-13 13-8 7-12 11-8 7-10 9-12 11-10 11-8 11-2 7 2 3h17l11-2h7v2l-12 8-13 10-22 22-7 8-22 22-8 7-16 16-10 13-17 28-5 9-1-4v-32l-5-25-7-24-3-9v-5l8-11 12-18 11-16 16-23 24-34 26-36 14-19 16-21 12-16 10-13 14-18 13-16 11-14 11-13 9-11 13-15 12-14 15-16 9-10 31-31 8-7 14-12 18-13 15-10 18-10z" fill="#E88623"/>
<path transform="translate(592,393)" d="m0 0 9 3 16 8 17 9 21 14 12 9 11 9 10 9 8 7 36 36 7 8 12 13 9 11 10 11 9 11 11 13 11 14 14 17 12 16 12 15 9 12 16 21 10 14 14 19 26 36 28 40 11 16 15 22 10 15-1 7-8 25-5 21-2 14-1 27-4-5-12-20-10-14-11-12-18-18-8-7-17-17-7-8-21-21-17-12-5-5h7l11 2 13 1 6-1-1-8-9-13-12-13-8-8-8-7-11-10-8-7-10-9-13-12-10-10-7-8-4-5 1-2 13 10 15 13 14 12 15 13 10 9 11 9 12 11 11 9 8 6 2 1-1-5-12-18-14-19-16-21-15-20-14-18-12-16-9-11-11-13-15-16-8-7-9-9-8-7-7-7-7-8-12-15 1-3 11 8 11 9 13 11 11 9 17 14 15 10 4 1-4-8-10-13-11-13-9-11-13-15-9-11-11-13-11-14-14-18-13-18-11-13-12-13-10-9-14-12-19-14-15-10-14-9z" fill="#E88623"/>
<path transform="translate(797,1213)" d="m0 0 2 3v23l-4 18-7 20-16 35-18 38-19 39-11 23-18 38-13 29-7 19-1 4-13 10-10 8-10 5h-11l-10-5-9-7-3-24v-19l2-15 4-15 8-17 12-22 14-25 16-27 17-29 6-9 11-7 10-8 21-21 7-8 14-15 7-8 12-13 14-15z" fill="#F7BB19"/>
<path transform="translate(1250,1213)" d="m0 0 7 6 9 9 7 8 15 16 7 8 11 12 12 13 13 13 21 15 14 24 13 22 15 26 14 25 13 25 5 15 2 9 1 9v24l-3 21-10 8-9 4h-10l-9-4-11-8-9-8-5-3-4-13-11-26-16-34-14-29-11-23-14-29-16-34-13-28-9-23-5-19-1-6v-21z" fill="#F7BB19"/>
<path transform="translate(609,447)" d="m0 0h12l10 4 9 6 8 7 9 13 24 46 13 23 12 23 12 22 13 27 3 9v6l-1 1-8-1-12-7 10 13 12 15 11 14 14 17 12 14 9 10 3 3v2l4 2 7 7-2 1-25-13-5-2 5 10 14 19 13 16 11 14 11 13 4 5v2l-4-2-12-11-8-7-13-12-36-33-13-12-12-11-8-7-10-9-8-7-13-13-9-11-10-8-8-9-12-22-10-17-7-10-8-14-8-16-14-36-4-15v-24l6-28 5-5z" fill="#F4CF1B"/>
<path transform="translate(1427,447)" d="m0 0h13l6 4 3 5 3 16 2 9 1 15-2 16-7 20-11 27-8 17-10 16-7 10-12 22-9 15-6 7-9 7-8 8-7 8-15 15-11 9-7 7-8 7-12 11-13 12-12 11-13 12-24 22-14 12-4 2 4-6 13-16 9-11 8-10 14-18 9-14 2-5-17 8-14 8-2-1 13-12 7-8 9-10 9-11 14-17 11-14 13-16 7-10-14 8h-6l-1-1 1-9 9-21 15-29 12-22 13-24 12-22 15-29 8-11 10-10 10-6z" fill="#F4CF1B"/>
<path transform="translate(519,796)" d="m0 0h20l24 4 36 9 34 10 36 12 26 11 33 15 30 14 35 16 4 3-11-2-29-6h-18l2 4 10 7 27 14 8 4-3 1-24-9-28-8-31-6-29-3-84-7-19-1h-16l-39 3h-30l-7-3-6-14-8-11-3-10 1-14 3-9 4-5 7-3 12-3 5-5 12-5z" fill="#F4D01C"/>
<path transform="translate(1509,796)" d="m0 0h21l15 3 10 4 7 5v2l15 3 6 4 4 8 2 10v10l-4 10-9 13-4 10-6 3h-30l-40-3h-16l-42 3-73 6-29 4-26 6-24 7-16 6-3-1 19-10 16-9 7-5 1-4-18 1-25 5-13 3-3-1 19-9 65-30 29-13 24-9 30-10 39-11 29-7 15-3z" fill="#F4D01C"/>
<path transform="translate(1623,483)" d="m0 0h4l-1 5-9 12-11 13-9 11-11 12-9 11-5 8 12-5 24-14 18-10 15-7 8-1-2 5-15 13-11 9-12 11-9 10-1 2 15-8 16-9 15-7 10-3h16l6 4v8l-5 9-7 7-5 10v12l9 17 1 8-5 6-9 4h-39l-16 3-33 9-24 5h-5l4-4 11-9 15-14 1-2-16 4-50 16-13 3h-11v-4l10-7 18-10 4-2v-2l-7 1-20 8-34 16-19 10-4-1 10-13 11-14 10-15 8-10 9-10 7-7 11-9 17-13 24-16 23-14 21-14 17-12 18-12z" fill="#F8BD19"/>
<path transform="translate(421,483)" d="m0 0 7 1 11 6 16 11 17 12 20 13 23 14 22 15 12 9 11 9 12 11 9 9 11 15 8 12 11 14 8 10 1 3-6-1-33-17-32-14-9-3h-4l9 7 18 10 6 5-1 3h-11l-23-6-46-15-10-2 7 8 8 7 10 9 6 4v1l-10-1-31-7-25-7-11-2h-40l-10-5-4-5 1-7 8-15 2-6-1-9-5-10-4-5-5-5-3-6v-7l4-4 3-1h15l15 5 20 10 17 10 4 2-6-8-13-13-11-9-14-12-6-6v-2l8 1 23 11 24 14 16 9 6 2-6-9-36-42-11-15z" fill="#F8BD19"/>
<path transform="translate(980,1099)" d="m0 0 2 1-15 16-9 10-11 12-24 26-15 16-8 8-7 8-20 20-14 21-14 26-17 37-15 36-15 38-19 49-12 30-9 20-9 13-9 10-6 3h-14l-4-1 2-10 15-51 16-51 15-40 18-46 15-39 18-48 8-23 10-9 18-12 21-12 46-25 25-13 22-12z" fill="#F7BC19"/>
<path transform="translate(1066,1099)" d="m0 0 6 2 22 12 29 15 22 12 30 16 24 14 17 12 8 6 19 52 20 52 19 49 15 39 14 43 21 71v4l-4 1h-14l-9-6-9-11-8-13-13-31-19-49-18-46-15-36-12-27-14-29-12-21-8-11-9-10-15-15-7-8-12-12-7-8-8-8-7-8-15-16-22-24-9-10z" fill="#F7BC19"/>
<path transform="translate(817,1090)" d="m0 0h15l-5 5-8 7-10 12-14 20-11 18-8 13-1 2 9-4 20-11 12-7 13-5h7l3 1v2l-25 10-13 9-11 9-15 10-16 10-11 8-12 11-13 15-11 12-12 13-14 14-8 7-12 9-18 10-3 1h-12l-6-3-5-6-3-13v-35l2-17 4-11 8-9 12-9 15-12 45-30 2-2-10 3-51 22-6 2-4-1 10-8 19-12 18-10 15-8 25-10 26-9 37-15 20-6z" fill="#F4D01C"/>
<path transform="translate(1216,1090)" d="m0 0h15l19 4 20 7 32 13 34 12 24 11 25 14 20 13 7 6-4 1-20-8-34-15-11-4-1 1 11 8 19 12 20 14 12 10 12 9 7 8 4 10 2 15v39l-3 12-4 6-7 3h-12l-16-8-13-9-12-11-8-7-10-10v-2h-2l-7-8-13-14-9-11-10-10-15-11-18-11-17-12-11-9-12-7-21-8 3-3h7l15 6 23 13 10 6 6 2-6-11-16-25-12-17-11-13-9-8z" fill="#F4D01C"/>
<path transform="translate(602,1116)" d="m0 0h3l-2 5-8 16-5 16-2 12-1 14-10 7-22 14-51 34-16 12-14 10-11 9-10 9h-3l-12-14-9-14-3-10v-8l4-13 10-25 5-17 2-12 1-14 9-4 25-7 45-9 52-8z" fill="#F7BC19"/>
<path transform="translate(1443,1116)" d="m0 0 26 3 52 8 36 7 28 7 14 5 1 1 2 20 5 20 10 25 5 15v10l-4 11-9 13-11 14-8-6-13-11-19-14-20-14-39-26-23-15-14-9-1-1-1-16-4-18-6-15-7-12z" fill="#F7BC19"/>
<path transform="translate(678,1322)" d="m0 0 2 1-12 15-15 20-13 17-13 19-10 15-9 16-4 8-4 13-1 6v41l-3 7-3 3h-11l-19-5-16-7-11-6-13-10-7-8-5-8-4-12 10-26 12-26 10-17 8-10 9-8 17-12 18-13 7-4 11 4 6 1h19l19-4 19-7z" fill="#F7BC19"/>
<path transform="translate(1368,1322)" d="m0 0 6 2 15 6 19 5 7 1h18l12-3 6-2 20 14 18 13 9 7 7 7 10 16 11 21 10 24 5 13-1 6-7 14-11 12-15 10-19 9-17 5-5 1h-11l-4-4-2-7v-41l-4-16-8-16-9-15-13-19-13-18-16-21-10-13-8-10z" fill="#F7BC19"/>
<path transform="translate(483,374)" d="m0 0h35l27 4 15 4 4 57 1 22 7 46 8 47-1 3-15-16-23-23-8-7-7-7-8-7-16-15-12-11-17-16-27-27-9-11-7-10-2-4v-8l5-5 9-6 13-5 19-4z" fill="#F7BC19"/>
<path transform="translate(1530,374)" d="m0 0h35l20 3 17 5 11 6 5 4 3 7-4 10-10 13-12 13-32 32-8 7-17 16-26 24-16 15-19 19-8 10-1-4 11-64 4-28 3-53 2-26 2-2 24-5z" fill="#F7BC19"/>
<path transform="translate(585,1189)" d="m0 0h1l-1 14-8 51-1 10v33l2 10-7 12-12 15-8 7-15 11-22 14-26 15-16 9-5-1-7-5-3-8v-13l6-36 2-13v-12l11-14 12-14 22-24 10-10 8-7 12-11 14-11 13-10 15-10z" fill="#F7BC19"/>
<path transform="translate(1462,1189)" d="m0 0 9 5 18 13 10 8 11 9 13 12 8 7 17 17 7 8 10 11 18 22v11l6 36 2 13v16l-3 7-5 4-6 2-21-11-28-17-16-10-16-12-13-13-9-13-3-5 1-11 1-10-1-26-5-35-5-33z" fill="#F7BC19"/>
<path transform="translate(664,989)" d="m0 0 16 1 42 4 36 7 36 9 23 7 8 5 3 4-1 7-7 6-8 3-13 2-56 1-40 10-18 3-30 3h-15l-18-5-16-7-16-10-11-9-4-5 1-5 10-5 36-11 16-6 21-8z" fill="#F4D01C"/>
<path transform="translate(1377,989)" d="m0 0h7l17 5 19 8 22 7 23 7 7 4 1 6-8 8-13 9-16 9-16 6-13 3h-14l-37-4-23-5-28-7-55-1-14-2-10-4-5-6-1-5 4-6 10-5 28-8 28-7 36-7 43-4z" fill="#F4D01C"/>
<path transform="translate(530,1029)" d="m0 0 16 7 31 16 24 14 16 11 12 10-1 4-13 13-69 6-86 9-11 1v-22l3-16 5-13 6-10 7-7 10-6 14-6z" fill="#F7BC19"/>
<path transform="translate(1517,1029)" d="m0 0 31 9 16 6 13 7 10 10 7 14 4 15 2 20v9l-3 1-94-10-70-6-12-12-2-4 7-7 15-11 18-11 26-14 16-8z" fill="#F7BC19"/>
<path transform="translate(991,1209)" d="m0 0 27 2 25 4 9 4 2 1-1 3h-35l-11 3v2l49 1v4l-7 4-29 6-16 4-3 3 11 4 4 1h12l24-3 16-3h4v12l-6 25-3 10-2 2-13 4-19 8-19 5-1 4 1 1 15-1 19-4 12-5 3 1-7 18-37 4h-18v2l15 3 19 3 19 2-1 4-6 7-16 6-14 5-2 3h27l2 1-1 4-9 17-5 6-3 1-5-5-1-5 9-8-8 4h-7l-5-6-4-10-2-6 1-5 12-5 6-2-20 1-4-4-9-26v-7l5-5 11-4 31-7 8-2-3-3-19-5-30-7-10-5-1-2v-11l7-21 5-26z" fill="#372113"/>
<path transform="translate(779,1251)" d="m0 0 1 2-18 38-13 28-18 38-15 34-15 39-11 30-8 18-7 10-14 15-4 3-7-1-6-7-2-6v-20l4-19 4-12 16-24 10-21 8-16 13-25 13-22 8-12 12-17 11-14 9-10 7-8 18-18z" fill="#F4D01C"/>
<path transform="translate(1269,1252)" d="m0 0 6 4 24 24 9 11 11 14 12 17 13 21 9 16 12 23 16 33 9 14 7 10 4 10 4 16 1 6v22l-4 8-6 5-7-1-9-9-7-8-6-9-8-17-19-51-14-34-16-35-14-29-15-33-12-25z" fill="#F4D01C"/>
<path transform="translate(1432,606)" d="m0 0 1 2-13 21-17 29-13 23-11 10-11 9-14 13-8 7-10 9-8 7-14 12-14 13-8 7-10 9-8 7-12 11-8 7-12 11-8 7-12 11-20 18-13 12-10 9-26 24-30 28-8 8-8 7-21 21-8 7-3 2 1-9 6-26 4-2 15-13 16-15 13-12 17-16 16-15 12-11 10-9 14-12 10-9 10-8 16-13 14-11 15-12 28-22 16-13 14-11 15-13 11-9 15-14 9-8 7-8 20-28 14-18 11-14z" fill="#E88623"/>
<path transform="translate(980,1099)" d="m0 0 2 1-15 16-9 10-11 12-24 26-15 16-8 8-7 8-20 20-14 21-14 26-17 37-15 36-15 38-19 49-12 30-9 20-9 13-5 5 1-8 13-37 17-46 21-58 15-39 12-29 9-20 13-23 7-12 7-9 9-10 23-23 8-7 27-27 1-2-29 15-15 8-20 8h-3l2-4 11-10 6-5 28-15 32-17 34-18z" fill="#E88622"/>
<path transform="translate(1066,1099)" d="m0 0 6 2 22 12 29 15 22 12 28 15v2l9 7 6 6v2l-9-2-24-11-22-12-12-6 9 10 21 21 8 7 29 29 10 14 12 21 10 19 14 33 15 39 20 55 17 46 17 47 1 9-5-5-10-15-12-28-16-41-19-49-16-39-14-32-16-33-13-22-10-13-20-20-7-8-12-12-7-8-8-8-7-8-15-16-22-24-9-10z" fill="#E88622"/>
<path transform="translate(615,606)" d="m0 0 5 5 10 12 10 13 16 21 10 15 9 10 18 18 11 9 11 10 14 11 13 11 14 11 16 13 13 10 14 11 16 13 14 11 14 12 11 9 15 14 8 7 13 12 12 11 17 16 30 28 13 11h2l6 31-1 3-12-12-8-7-17-17-8-7-10-10-8-7-7-7-8-7-16-15-36-33-10-9-12-11-8-7-13-12-8-7-11-10-8-7-11-10-8-7-11-10-8-7-10-9-11-9-15-14-11-9-14-13-11-9-5-8-15-27-17-28-7-11z" fill="#E88623"/>
<path transform="translate(718,958)" d="m0 0 12 1 39 8 38 10 35 11 26 9 37 15 30 14 25 13 13 8 3 7 3 11-44-2-26-1-48-1h-74v-1l35-6h-39l3-2 36-5 30-3 34-2-3-3-16-6-35-11v-2h15l34 2h10l-4-3-32-10-48-14-20-7-2-2 11 2 36 9 10 2h11l-4-3-16-6-34-10-57-15-24-6z" fill="#E88623"/>
<path transform="translate(1324,958)" d="m0 0h6l-4 2-55 14-36 10-29 9-9 4h-2v3l16-2 30-7 19-5 3 1-19 7-33 10-44 13-10 4v1l29-1 15-1h15v2l-38 12-15 6-1 2 46 3 34 4 20 3 3 2h-38l35 6v1h-84l-61 2-43 2 4-20 22-12 21-11 29-13 33-13 41-14 43-12 40-9z" fill="#E88623"/>
<path transform="translate(1057 1e3)" d="m0 0h11l3 3 1 3 1 19 1 9-4 15-5 11-6 20-3 3-13 1-8 3 4 2 9 1 12 1 1 4-6 10-5 11-3 12-3 5-5 1-14-6-9-4-2-3 1-7 2-2 12-3 15-4 2-1-3-1-31-1-5-3-2-5-4-20v-12l5-5 19-10v-1h-21v-4l11-5 13-5 6-4-4-1h-15l-21 1h-13l-2-1v-3l16-5 21-4 12-4 20-8z" fill="#4A3A19"/>
<path transform="translate(483,374)" d="m0 0h35l27 4 15 4 4 57 1 22 7 46 8 47-1 3-15-16-23-23-8-7-7-7-8-7-16-15-12-11-17-16-27-27-9-11-7-10-2-6 7 2 10 8 15 14 31 31 7 8 25 25 5 4-5-9-8-11-7-14 1-4 8 9 12 17 13 18 13 16 7 7 5 2-1-6-13-22-9-15-7-15h3l14 20 5 7-3-9-13-30-10-23 1-2 7 9 9 14v2h2l-5-21-8-20-8-14-10-11-10-5-8-2-18-1-20 2-23 5-4-1 14-6 16-4z" fill="#E88623"/>
<path transform="translate(1530,374)" d="m0 0h35l20 3 17 5 8 4-4 1-23-5-19-2h-9l-15 2-9 4-8 6-9 12-8 16-7 21-3 13h2l2-5 12-18 3-2-3 9-13 30-9 21v3l14-20 5-7 2 1-5 11-8 15-12 19-5 10 1 3 7-4 12-14 14-19 12-17 10-13 3-2-1 7-6 11-11 16-1 3 10-9 30-30 7-8 28-28 8-7 11-8h5l-5 10-9 11-11 12-32 32-8 7-17 16-26 24-16 15-19 19-8 10-1-4 11-64 4-28 3-53 2-26 2-2 24-5z" fill="#E88623"/>
<path transform="translate(320,240)" d="m0 0 5 1 24 14 28 17 27 18 19 14 10 9 8 7 10 10 14 11 5 5-8-1-16-8-17-10-14-6-21-6-32-8-13-5-27-15-5-4-7-12-1-4v-11l4-10z" fill="#F2EADD"/>
<path transform="translate(1725,240)" d="m0 0 5 1 6 7 3 8v12l-7 14-7 6-21 11-12 6-21 6-32 8-16 6-25 14-12 6-8 1 5-5 10-8 10-9 15-14 12-10 17-12 15-10 19-12 27-16z" fill="#F2EADD"/>
<path transform="translate(815,1067)" d="m0 0h48l42 1 64 3 13 1 6 10-1 5-35 15-40 18-29 14-13 6h-2l2-4 7-8 13-11 15-10 7-4-58 14-16 3h-4v-2l14-6 45-16 2-2-5-1h-25l-19 2 4-3 36-15 7-2v-2l-31-2-26-1-57-1v-1z" fill="#E88622"/>
<path transform="translate(1143,1068)" d="m0 0h119v1l-49 1-44 2-14 1v2l9 3 34 14 4 3-19-2h-30l3 3 19 7 31 11 8 4v2l-10-1-39-9-29-7 12 7 16 12 13 12 3 4v2l-6-2-31-15-36-16-29-13-12-5 3-10 3-7 4-1 39-2z" fill="#E88623"/>
<path transform="translate(274,269)" d="m0 0 6 1 33 22 20 13 21 13 32 19 19 12 12 9 2 2-1 4h-7l-15-5-19-9-15-4-33-5-16-5-14-7-9-4-7-8-8-15-5-14-1-5v-9z" fill="#F2EADD"/>
<path transform="translate(1771,269)" d="m0 0 5 1 3 4v10l-5 16-9 17-8 9-15 6-12 6-16 4-33 5-17 6-19 9-8 2h-7l-1-3 5-5 9-7 21-13 29-17 19-12 25-16 31-21z" fill="#F2EADD"/>
<path transform="translate(563,286)" d="m0 0 6 1 11 7 13 12 11 9 14 13 8 7 17 16 10 11 12 16 14 19 10 14 4 8-2 1-11-8-11-10-8-7-14-12-15-12-13-8-22-12-19-11-14-11-7-7-6-10v-11l5-8z" fill="#F2EADD"/>
<path transform="translate(1481,286)" d="m0 0 5 1 5 4 5 7 1 3v11l-5 9-10 10-15 11-22 12-18 10-16 11-13 11-14 12-13 12-14 10-1-4 8-12 14-19 16-21 9-10 24-24 8-7 14-12 11-10 11-9z" fill="#F2EADD"/>
<path transform="translate(1590,227)" d="m0 0 5 2 4 5 3 8v15l-4 11-8 10-9 8-17 10-25 12-15 9-13 11-20 20-6 4-7 1 1-5 8-11 11-13 7-8 9-10 7-8 14-15 12-13 8-8 7-8 17-17 7-8z" fill="#F2EADD"/>
<path transform="translate(457,227)" d="m0 0 5 2 10 10 7 8 16 16 7 8 9 9 7 8 16 17 7 8 9 10 9 11 10 14 1 5-7-1-10-8-21-21-14-10-23-12-22-11-12-9-8-9-6-12-1-4v-13l4-11 4-4z" fill="#F2EADD"/>
<path transform="translate(1788,333)" d="m0 0 5 1 1 1v10l-4 13-6 8-15 10-15 6-17 5-23 4-27 4-21 4h-11l-3-1 2-4 14-8 29-14 41-18 43-18z" fill="#F2EADD"/>
<path transform="translate(256,333)" d="m0 0 6 1 29 12 28 12 36 16 25 12 14 8 2 4-3 1h-11l-32-6-29-4-21-5-16-6-11-6-11-8-6-12-2-7v-10z" fill="#F2EADD"/>
<path transform="translate(394,221)" d="m0 0 4 2 10 9 72 72 7 8 9 9 9 11 3 4v2l-7-1-19-14-15-10-14-8-12-8-14-10-13-10-12-9-11-7-6-8-1-3v-12l4-10 4-6z" fill="#F2EADD"/>
<path transform="translate(1652,221)" d="m0 0 5 2 5 8 2 6v14l-5 8-9 7-11 7-16 13-20 14-20 12-14 9-19 14-5 3h-5l2-5 11-12 7-8 11-11 7-8 61-61 8-7z" fill="#F2EADD"/>
<path transform="translate(1748,449)" d="m0 0h5l13 18 3 5v7l-6 7-5 2-26 3-18 3h-12l-6-9-5-16 1-5 5-4 10-4 25-5z" fill="#F2EADD"/>
<path transform="translate(296,449)" d="m0 0 21 2 24 5 12 5 4 4-1 9-5 13-5 7h-12l-33-5-11-1-7-4-4-5v-6l9-14 7-9z" fill="#F2EADD"/>
<path transform="translate(360,809)" d="m0 0h19l5 2 1 1v7l-7 19-2 16-2 4-9 3-13 3h-8l-5-4-3-8v-13l4-17 5-10 2-2z" fill="#F2EADD"/>
<path transform="translate(1670,809)" d="m0 0h18l13 1 4 5 5 13 2 10v15l-3 7-5 4h-8l-18-4-5-4-2-13-4-14-4-11v-6l2-2z" fill="#F2EADD"/>
<path transform="translate(1024,835)" d="m0 0h11l23 2 3 1 3 6 6 20 4 19v9l-4 10h-6l-8-4-19-3-22-4-6-3-2-3 4-4 18-5 10-3 12-5 2-2 1-7h-2v-2l-11-1-3-2 9-4 5-1v-2l-14-3-16-6z" fill="#4A3A19"/>
<path transform="translate(342,743)" d="m0 0h13l12 2 8 4 8 16v6l-7 8-12 7-16 4-6 1h-11l-5-3-1-6 4-17 6-15 5-6z" fill="#F2EADD"/>
<path transform="translate(1693,743)" d="m0 0h13l6 5 6 13 5 20v6l-3 3-3 1h-11l-19-4-12-6-8-7-2-4 1-7 7-14 8-4z" fill="#F2EADD"/>
<path transform="translate(1679,676)" d="m0 0h14l9 7 10 13 5 11 1 9-3 8-5 4h-7l-13-3-11-1-6-3-2-4v-13l1-23 4-4z" fill="#F2EADD"/>
<path transform="translate(355,676)" d="m0 0h14l5 3 3 5v33l-3 5-5 2-15 2-9 2h-7l-5-4-2-4v-13l7-14 9-11z" fill="#F2EADD"/>
<path transform="translate(1777,392)" d="m0 0 5 1 5 4 1 2v6l-4 6-7 6-13 6-18 4-38 6-9 1h-18l4-4 21-10 50-20z" fill="#F2EADD"/>
<path transform="translate(268,392)" d="m0 0 6 1 49 19 28 12 15 8 1 2h-18l-36-5-26-5-12-5-10-7-5-7 1-7 5-5z" fill="#F2EADD"/>
<path transform="translate(300,509)" d="m0 0h15l14 2 11 4 4 4 4 14v6l-3 3-15 5-8 2h-16l-5-4-4-9-1-5v-15l3-6z" fill="#F2EADD"/>
<path transform="translate(1733,509)" d="m0 0h15l3 4 1 3v16l-3 10-5 6-2 1h-16l-20-6-5-3-1-1 1-9 4-12 5-4 9-3z" fill="#F2EADD"/>
<path transform="translate(1372,1560)" d="m0 0h20l13 2 3 2 3 13-1 9-5 6-21 5-6 1h-14l-3-2-1-11v-15l3-5 5-4z" fill="#F2EADD"/>
<path transform="translate(657,1560)" d="m0 0h19l7 3 5 6v25l-4 4h-14l-24-5-5-3-3-4v-14l3-9z" fill="#F2EADD"/>
<path transform="translate(1050,701)" d="m0 0h2l2 14v27l-3 10-4 5-10 5-14 4-10 1-8-7-3-3v-5l6-4 12-4 12-5 8-6 1-4-7 2h-7l2-5 12-12 8-11z" fill="#4A3A19"/>
<path transform="translate(307,676)" d="m0 0h12l6 3 1 5-1 3v10l1 10-3 7-6 3-17 5h-9l-4-5v-10l5-13 7-11z" fill="#F2EADD"/>
<path transform="translate(1730,676)" d="m0 0h12l8 8 8 14 3 9v10l-4 5h-8l-21-6-5-5v-25l-1-6 4-3z" fill="#F2EADD"/>
<path transform="translate(1587,1455)" d="m0 0h6l7 6-2 10-6 20-6 12-5 4h-7l-18-6-1-4 3-7 8-11 11-13 6-8z" fill="#F2EADD"/>
<path transform="translate(455,1455)" d="m0 0h6l7 6 10 13 11 14 4 8-1 5-18 6h-7l-6-5-6-14-7-25 2-4z" fill="#F2EADD"/>
<path transform="translate(1676,872)" d="m0 0 9 1 6 3v9l-3 18-4 11-6 7-4 2-9-2-20-4-2-3 10-7 6-5 7-15 5-12z" fill="#F2EADD"/>
<path transform="translate(368,872)" d="m0 0 7 1 5 8 8 19 5 6 10 6 2 4-7 2-15 3-9 2-6-4-5-7-4-14-2-14v-8l7-3z" fill="#F2EADD"/>
<path transform="translate(1649,1287)" d="m0 0 9 2 9 7-2 9-6 16-6 9-2 1h-10l-12-5-8-6 1-7 9-10 15-15z" fill="#F2EADD"/>
<path transform="translate(1655,1054)" d="m0 0h11l4 6 2 10v9l-3 10-6 4-12 3h-10l-3-4-3-19v-8l5-6 10-4z" fill="#F2EADD"/>
<path transform="translate(396,1287)" d="m0 0 6 1 23 23 2 4v5l-8 6-12 5h-10l-5-5-7-15-4-12 2-4 7-6z" fill="#F2EADD"/>
<path transform="translate(382,1054)" d="m0 0h11l13 4 6 5 1 2v9l-3 19-3 3h-10l-12-3-5-3-3-6-1-12 2-12z" fill="#F2EADD"/>
<path transform="translate(1675,1229)" d="m0 0h10l5 2 3 3 2 6 1 12-2 11-5 5-2 1h-10l-16-3-3-4v-11l5-14 4-5z" fill="#F2EADD"/>
<path transform="translate(364,1229)" d="m0 0h9l8 3 4 5 5 13 1 9-2 5-5 3-13 2h-10l-5-3-3-7v-18l3-8 3-3z" fill="#F2EADD"/>
<path transform="translate(375,1171)" d="m0 0h9l7 3 3 3 1 3v16l-2 10-2 4-6 3h-12l-9-4-4-5v-12l4-15 5-5z" fill="#F2EADD"/>
<path transform="translate(1665,1171)" d="m0 0h8l8 2 4 6 3 12v13l-5 6-8 3h-12l-5-3-3-4-2-13v-12l3-6 4-3z" fill="#F2EADD"/>
<path transform="translate(377,1109)" d="m0 0h13l8 3 4 5v10l-2 17-3 6-4 3h-14l-6-4-3-4-1-3v-13l4-12z" fill="#F2EADD"/>
<path transform="translate(1658,1109)" d="m0 0h13l5 10 3 10v13l-3 6-4 4-3 1h-14l-5-4-2-6-2-17v-9l4-5z" fill="#F2EADD"/>
<path transform="translate(414,1398)" d="m0 0h8l6 4 11 12 9 11 3 6-1 6-10 4h-9l-7-4-7-8-13-18-2-5 9-7z" fill="#F2EADD"/>
<path transform="translate(1626,1398)" d="m0 0h9l9 6 2 4-12 17-8 10-6 5-3 1h-9l-9-4-2-2 1-6 6-9 11-12 6-7z" fill="#F2EADD"/>
<path transform="translate(583,1538)" d="m0 0h8l13 3 8 5 3 6 2 13v8l-2 7-2 2-5-1-15-12-13-8-4-6 1-8z" fill="#F2EADD"/>
<path transform="translate(1457,1538)" d="m0 0h8l6 9 1 8-3 5-9 6-11 8-10 8-5-1-2-4-1-10 2-15 3-6 8-5z" fill="#F2EADD"/>
<path transform="translate(1007,1163)" d="m0 0 10 1 16 10 7 7 4 5 11 9 6 7v4l-8-1-14-6-14-7-10-3-10-1-5-4-1-9 7-11z" fill="#4A3A19"/>
<path transform="translate(1606,1017)" d="m0 0h7l15 6 11 7 6 7 1 6-6 4-13 5-4 2-7-1-7-6-7-12-2-5v-7l4-5z" fill="#F2EADD"/>
<path transform="translate(435,1017)" d="m0 0h7l5 4 1 2v7l-7 14-7 8-5 2-7-1-10-5-8-3-2-2 1-6 6-7 11-7z" fill="#F2EADD"/>
<path transform="translate(299,742)" d="m0 0 9 1 8 4 3 5-2 11-2 15-3 3h-8l-10-4-7-7v-9l4-11 6-7z" fill="#F2EADD"/>
<path transform="translate(1743,742)" d="m0 0h6l7 6 5 12v10l-4 5-10 5-3 1h-8l-3-4-3-19v-8l5-5z" fill="#F2EADD"/>
<path transform="translate(500,1524)" d="m0 0 12 1 13 4 15 9 7 6 2 5-2 2h-17l-17-3-12-5-7-6-2-5 1-5 2-2z" fill="#F2EADD"/>
<path transform="translate(1543,1524)" d="m0 0 10 1 3 3-1 8-8 7-12 5-16 3h-18l-2-3 4-6 13-9 12-6z" fill="#F2EADD"/>
<path transform="translate(1485,1507)" d="m0 0h14l7 3 3 3 1 6-3 7-5 4-12 5-10 3h-6l-3-4-1-4v-12l2-5 10-5z" fill="#F2EADD"/>
<path transform="translate(549,1507)" d="m0 0h14l12 5 3 5v14l-3 6-1 1-9-1-15-5-9-6-2-3v-10l6-5z" fill="#F2EADD"/>
<path transform="translate(1638,1347)" d="m0 0h8l9 6 3 7 1 7v9l-2 9-4 3h-9l-8-4-4-5-1-2v-13l4-13z" fill="#F2EADD"/>
<path transform="translate(307,809)" d="m0 0h14l5 5v12l2 8v6l-4 3-3 1h-16l-8-4-1-2v-11l4-11 5-6z" fill="#F2EADD"/>
<path transform="translate(402,1347)" d="m0 0h8l3 3 4 13v14l-3 5-5 4-5 2h-9l-4-3-2-11 1-13 3-8z" fill="#F2EADD"/>
<path transform="translate(1727,809)" d="m0 0h14l6 5 5 12v13l-6 4-3 1h-15l-7-3-1-6 2-8 1-15z" fill="#F2EADD"/>
<path transform="translate(1612,1346)" d="m0 0 4 1 3 7 2 18v14l-5 5h-10l-10-3-2-2 1-10 4-12 2-9 4-5z" fill="#F2EADD"/>
<path transform="translate(433,1346)" d="m0 0 5 1 6 4 4 6 4 16 2 6v7l-4 3-8 2h-10l-4-3-1-3v-10l2-20 3-8z" fill="#F2EADD"/>
<path transform="translate(424,1096)" d="m0 0 5 2 7 5 4 6 1 4v14l-2 9-4 4-8 3h-7l-3-3 3-27 3-15z" fill="#F2EADD"/>
<path transform="translate(1622,1096)" d="m0 0 3 1 3 15 3 24v5l-2 2h-8l-8-3-4-5-2-10v-10l3-9 7-7z" fill="#F2EADD"/>
<path transform="translate(476,1414)" d="m0 0 4 5 13 21 2 4v7l-3 5-5 1-14-11-6-5-2-5 1-7 4-8z" fill="#F2EADD"/>
<path transform="translate(1636,1162)" d="m0 0 4 2 2 7 2 21-3 9-6 5-6 1-3-3-3-14v-14l6-9 5-4z" fill="#F2EADD"/>
<path transform="translate(1571,1414)" d="m0 0 5 4 6 10 1 9-4 6-13 10-5 4-5-1-3-6 1-8z" fill="#F2EADD"/>
<path transform="translate(411,1162)" d="m0 0 6 3 6 7 2 4v15l-2 11-2 4-5 1-7-4-4-7v-12l2-17 2-4z" fill="#F2EADD"/>
<path transform="translate(1035,778)" d="m0 0h6l6 5 5 10-3 3-29 6-14 1-5-2-1-4 15-8 11-6z" fill="#4A3A19"/>
<path transform="translate(497,993)" d="m0 0h7l3 4 6 13-1 4-10 5-13 4-7-1-2-3v-14l11-9z" fill="#F2EADD"/>
<path transform="translate(1544,993)" d="m0 0h7l10 6 7 6v15l-4 3-9-1-16-6-4-4 3-7 4-10z" fill="#F2EADD"/>
<path transform="translate(1415,1526)" d="m0 0h8l9 4 4 4-1 5-16 8-9 5-1 1h-6l-3-5-2-12 5-5 8-4z" fill="#F2EADD"/>
<path transform="translate(625,1526)" d="m0 0h8l9 3 6 4 2 3-1 10-3 6-1 1-7-1-8-5-16-7-2-5 4-5z" fill="#F2EADD"/>
<path transform="translate(988,989)" d="m0 0h16l25 4 16 4 2 2-1 1-19 2-24 1-10 4h-6l-3-4v-7l3-6z" fill="#4A3A19"/>
<path transform="translate(1634,1241)" d="m0 0h8l3 3 1 10-3 17-4 4h-6l-8-5-4-5v-8l6-9z" fill="#F2EADD"/>
<path transform="translate(406,1241)" d="m0 0h8l10 10 3 6v8l-7 8-5 2h-6l-4-4-2-11v-16z" fill="#F2EADD"/>
<path transform="translate(1720,864)" d="m0 0 7 1 1 2v6l-6 10-5 6-10 7-9 2-3-1 1-6 6-9 3-9 6-5z" fill="#F2EADD"/>
<path transform="translate(323,864)" d="m0 0 8 1 8 4 5 6 4 11 6 9-1 2-5 1-9-3-10-9-6-7-3-7 1-7z" fill="#F2EADD"/>
<path transform="translate(494,1470)" d="m0 0h7l6 3 10 11 4 8-2 14-2 4-4-2-14-21-6-11v-5z" fill="#F2EADD"/>
<path transform="translate(1547,1470)" d="m0 0h7l2 3-4 9-11 18-7 9h-3l-2-3-1-5v-11l5-8 8-9z" fill="#F2EADD"/>
<path transform="translate(1581,1029)" d="m0 0 5 1 10 9 3 5v8l-5 6-5-1-4-5-7-10-3-4v-5z" fill="#F2EADD"/>
<path transform="translate(464,1029)" d="m0 0 6 1 3 3-1 7-6 7-6 10-6 1-4-5-1-2v-7l6-8z" fill="#F2EADD"/>
<path transform="translate(1489,978)" d="m0 0 13 1 9 2 1 1-1 7-4 5-8 5-6-1-5-5-3-8v-5z" fill="#F2EADD"/>
<path transform="translate(554,978)" d="m0 0 8 1 1 1-1 9-5 8-4 2-6-1-7-5-4-6v-5l5-2z" fill="#F2EADD"/>
<path transform="translate(1050,807)" d="m0 0 4 4v7l-4 4h-7l-10-4-6-2 2-3 13-4z" fill="#4A3A19"/>
<path transform="translate(1467,512)" d="m0 0h1l-1 10-8 34h-1l1-14 4-19z" fill="#E88623"/>
<path transform="translate(580,512)" d="m0 0 2 2 5 17 3 17v7l-2-4-7-30z" fill="#E88623"/>
<path transform="translate(1449,1061)" d="m0 0 2 1-2 4-15 10-11 9-5 4-2-2 11-9 15-12z" fill="#2B2211"/>
<path transform="translate(611,1071)" d="m0 0 4 2 15 13v3l-7-6-10-8-3-3z" fill="#2F2512"/>
</svg>
